# xmcd
#
# Track frame offsets: 
#        150
#        46850
#        75394
#        103059
#        132575
#        157588
#        201212
#
# Disc length: 3388 seconds
#
# Revision: 0
# Processed by: cddbd v1.5.2PL0 Copyright (c) Steve Scherf et al.
# Submitted via: ExactAudioCopy v1.3
#
DISCID=4e0d3a07
DTITLE=Junior Wells - Bobbin' and Weevin' (Live)
DYEAR=2018
DGENRE=Blues
TTITLE0=Broke and Hungry (Live in Rochester 1994)
TTITLE1=My Younger Days (Live in Rochester 1994)
TTITLE2=Little Red Rooster (Live in Rochester 1994)
TTITLE3=Got My Mojo Workin' (Live in Rochester 1994)
TTITLE4=Little by Little (Live in Rochester 1994)
TTITLE5=Today I Started Loving You Again (Live in Rochester 1994)
TTITLE6=Help Me (Live in Boulder 1995)
EXTD=
EXTT0=
EXTT1=
EXTT2=
EXTT3=
EXTT4=
EXTT5=
EXTT6=
PLAYORDER=
